# xmcd CD database file
#
# Track frame offsets:
#	150
#	21243
#	38032
#	80720
#
# Disc length: 1488 seconds
#
# Revision: 0
# Processed by: cddbd v1.5.1PL2 Copyright (c) Steve Scherf et al.
# Submitted via: CDex 1.51
#
DISCID=2905ce04
DTITLE=FREENOTE - さよならの歌 (Single)
DYEAR=2005
DGENRE=Rock
TTITLE0=さよならの歌
TTITLE1=Monday Morning
TTITLE2=Sing A Song
TTITLE3=(VIDEO)
EXTD=YEAR: 2005
EXTT0=
EXTT1=
EXTT2=
EXTT3=
PLAYORDER=
